# Blender v2.79 (sub 0) OBJ File: 'untitled.blend'
# www.blender.org
mtllib Common-Handgun.mtl
o Cube.002_Cube.003
v -0.387127 0.399379 1.492437
v -0.387127 1.411180 1.492437
v -0.387127 0.399379 -0.507563
v -0.387127 1.411180 -0.507563
v 0.387127 0.399379 1.492437
v 0.387127 1.411180 1.492437
v 0.387127 0.399379 -0.507563
v 0.387127 1.411180 -0.507563
v -0.387127 0.399379 2.669223
v -0.387127 1.411180 2.669223
v 0.387127 0.399379 2.669223
v 0.387127 1.411180 2.669223
v -0.387127 0.399379 -3.027091
v -0.387127 1.411180 -3.027091
v 0.387127 0.399379 -3.027091
v 0.387127 1.411180 -3.027091
v -0.387127 0.580597 1.492437
v -0.387127 0.580597 -0.507563
v 0.387127 0.580597 -0.507563
v 0.387127 0.580597 1.492437
v -0.387127 0.580597 2.669223
v 0.387127 0.580597 2.669223
v -0.387127 0.580597 -3.027091
v 0.387127 0.580597 -3.027091
v -0.387127 1.245064 1.492437
v -0.387127 1.245064 2.669223
v -0.387127 1.245064 -0.507563
v 0.387127 1.245064 -0.507563
v 0.387127 1.245064 1.492437
v 0.387127 1.245064 2.669223
v -0.387127 1.245064 -3.027091
v 0.387127 1.245064 -3.027091
v -0.387127 0.633402 -3.215679
v 0.387127 0.633402 -3.215679
v -0.387127 1.252607 -3.034635
v 0.387127 1.252607 -3.034635
v 0.141663 1.111824 -1.098326
v 0.141663 1.111824 3.398759
v 0.221780 1.039531 -1.098326
v 0.221780 1.039531 3.398759
v 0.268133 0.942081 -1.098326
v 0.268133 0.942081 3.398759
v 0.273665 0.834311 -1.098326
v 0.273665 0.834311 3.398759
v 0.237534 0.732627 -1.098326
v 0.237534 0.732627 3.398759
v 0.165241 0.652510 -1.098326
v 0.165241 0.652510 3.398759
v 0.067792 0.606157 -1.098326
v 0.067792 0.606157 3.398759
v -0.039979 0.600625 -1.098326
v -0.039979 0.600625 3.398759
v -0.141663 0.636755 -1.098326
v -0.141663 0.636755 3.398759
v -0.221780 0.709049 -1.098326
v -0.221780 0.709048 3.398759
v -0.268133 0.806498 -1.098326
v -0.268133 0.806498 3.398759
v -0.273665 0.914269 -1.098326
v -0.273665 0.914269 3.398759
v -0.237534 1.015953 -1.098326
v -0.237534 1.015952 3.398759
v -0.165241 1.096070 -1.098326
v -0.165241 1.096070 3.398759
v -0.067791 1.142423 -1.098326
v -0.067791 1.142423 3.398759
v 0.039979 1.147955 -1.098326
v 0.039979 1.147955 3.398759
v -0.081933 -0.629112 0.478242
v -0.081933 -0.382972 0.446811
v -0.081933 -0.553677 0.225817
v -0.081933 -0.357828 0.238389
v 0.081933 -0.629112 0.478242
v 0.081933 -0.382972 0.446811
v 0.081933 -0.553677 0.225817
v 0.081933 -0.357828 0.238389
v -0.081933 -0.775638 0.434454
v -0.081933 -0.700204 0.182029
v 0.081933 -0.775638 0.434454
v 0.081933 -0.700204 0.182029
v -0.081933 -0.938268 0.350015
v -0.081933 -0.831402 0.116448
v 0.081933 -0.938268 0.350015
v 0.081933 -0.831402 0.116448
v -0.081933 -1.131986 0.174976
v -0.081933 -1.018834 -0.039732
v 0.081933 -1.131986 0.174976
v 0.081933 -1.018834 -0.039732
v -0.081933 -1.243686 0.004912
v -0.081933 -1.105389 -0.197224
v 0.081933 -1.243686 0.004912
v 0.081933 -1.105389 -0.197224
v -0.081933 -1.322490 -0.224685
v -0.081933 -1.152762 -0.389103
v 0.081933 -1.322490 -0.224685
v 0.081933 -1.152762 -0.389103
v -0.081933 -1.365242 -0.454366
v -0.081933 -1.195513 -0.599926
v 0.081933 -1.365242 -0.454366
v 0.081933 -1.195513 -0.599926
v -0.081933 -1.386045 -0.756168
v -0.081933 -1.222603 -0.882868
v 0.081933 -1.386045 -0.756168
v 0.081933 -1.222603 -0.882868
v -0.081933 -1.347629 -1.782874
v -0.081933 -1.215618 -1.739846
v 0.081933 -1.347629 -1.782874
v 0.081933 -1.215618 -1.739846
v -0.020937 -0.469274 -1.045709
v -0.020937 -0.310219 -1.007992
v -0.020937 -0.450416 -1.286485
v -0.020937 -0.297647 -1.368207
v 0.020937 -0.469274 -1.045709
v 0.020937 -0.310219 -1.007992
v 0.020937 -0.450416 -1.286485
v 0.020937 -0.297647 -1.368207
v -0.020937 -0.614667 -1.015063
v -0.020937 -0.627239 -1.205549
v 0.020937 -0.614667 -1.015063
v 0.020937 -0.627239 -1.205549
v -0.020937 -0.703672 -0.942177
v -0.020937 -0.779107 -1.076087
v 0.020937 -0.703672 -0.942177
v 0.020937 -0.779107 -1.076087
v -0.020937 -0.814969 -0.885767
v -0.020937 -0.858973 -0.944242
v 0.020937 -0.814969 -0.885767
v 0.020937 -0.858973 -0.944242
v 0.396171 -0.846646 -3.150799
v 0.396171 -1.760383 -3.487540
v 0.396171 -1.889457 -1.943770
v 0.396171 -2.140575 -1.889457
v -0.396171 -0.846646 -3.150799
v -0.396171 -1.760383 -3.487540
v -0.396171 -1.889457 -1.943770
v -0.396171 -2.140575 -1.889457
v 0.396171 -2.187218 -3.728198
v 0.396171 -2.773799 -1.945451
v -0.396171 -2.187218 -3.728198
v -0.396171 -2.773799 -1.945451
v 0.396171 -2.547928 -3.905191
v 0.396171 -2.786906 -2.057268
v -0.396171 -2.547928 -3.905191
v -0.396171 -2.786906 -2.057268
v 0.396171 -0.106178 -2.873973
v 0.396171 -0.301705 -1.427967
v -0.396171 -0.106178 -2.873973
v -0.396171 -0.301705 -1.427967
v 0.396171 0.520626 -2.789217
v 0.396171 0.498900 -1.332348
v -0.396171 0.520626 -2.789217
v -0.396171 0.498900 -1.332348
v 0.396171 -0.078966 -3.075215
v -0.396171 -0.078966 -3.075215
v 0.396171 0.547837 -2.990459
v -0.396171 0.547837 -2.990459
v 0.396171 -0.527482 2.825909
v -0.396171 -0.527482 2.825909
v 0.396171 0.414338 2.758588
v -0.396171 0.414338 2.758588
v -0.183384 -2.922714 -3.594861
v -0.183384 -2.660675 -2.791027
v -0.183384 -2.814087 -3.835175
v -0.183384 -2.541186 -3.715686
v 0.183384 -2.922714 -3.594861
v 0.183384 -2.660675 -2.791027
v 0.183384 -2.814087 -3.835175
v 0.183384 -2.541186 -3.715686
v -0.183384 -2.922223 -3.210381
v -0.183384 -2.703634 -2.417409
v 0.183384 -2.922223 -3.210381
v 0.183384 -2.703634 -2.417409
v -0.183384 -2.983151 -2.777111
v -0.183384 -2.753700 -2.190529
v 0.183384 -2.983151 -2.777111
v 0.183384 -2.753700 -2.190529
v -0.183384 -3.016522 -2.412238
v 0.183384 -3.016522 -2.412238
v 0.000000 -2.776209 -2.118947
v -0.028330 1.106012 2.325132
v -0.028330 1.605294 2.301746
v -0.028330 1.129398 2.059709
v -0.028330 1.581908 2.059709
v 0.077994 1.106012 2.325132
v 0.077994 1.605294 2.301746
v 0.077994 1.129398 2.059709
v 0.077994 1.581908 2.059709
v -0.028330 1.473904 2.307901
v -0.028330 1.462826 2.059709
v 0.077994 1.462826 2.059709
v 0.077994 1.473904 2.307901
v -0.028330 1.112569 2.465140
v 0.077994 1.112569 2.465140
v -0.028330 1.480461 2.447908
v 0.077994 1.480461 2.447908
vt 0.347228 0.448915
vt 0.345527 0.448915
vt 0.345527 0.413375
vt 0.347228 0.413375
vt 0.345527 0.368603
vt 0.347228 0.368602
vt 0.343826 0.413374
vt 0.345527 0.413374
vt 0.345527 0.448914
vt 0.343826 0.448914
vt 0.354031 0.448913
vt 0.355886 0.448913
vt 0.355886 0.469825
vt 0.354031 0.469825
vt 0.382656 0.421623
vt 0.373803 0.421617
vt 0.373803 0.386130
vt 0.382656 0.386136
vt 0.262188 0.453453
vt 0.253335 0.453452
vt 0.253335 0.417910
vt 0.262188 0.417911
vt 0.301257 0.486953
vt 0.301257 0.484001
vt 0.310111 0.484001
vt 0.310111 0.486953
vt 0.373803 0.365250
vt 0.382656 0.365256
vt 0.373803 0.386163
vt 0.364949 0.386162
vt 0.364949 0.365250
vt 0.373803 0.365250
vt 0.345527 0.469826
vt 0.343826 0.469826
vt 0.223398 0.561333
vt 0.221723 0.561333
vt 0.221723 0.545966
vt 0.223398 0.545966
vt 0.337023 0.413373
vt 0.335168 0.413373
vt 0.335168 0.368601
vt 0.337023 0.368601
vt 0.382656 0.466328
vt 0.373803 0.466322
vt 0.364949 0.421704
vt 0.373803 0.421705
vt 0.373803 0.466479
vt 0.364949 0.466478
vt 0.343826 0.368601
vt 0.335008 0.968235
vt 0.333180 0.968235
vt 0.333180 0.952868
vt 0.335008 0.952868
vt 0.335168 0.448913
vt 0.337023 0.448914
vt 0.337023 0.469825
vt 0.335168 0.469825
vt 0.301257 0.501978
vt 0.301257 0.498758
vt 0.310111 0.498758
vt 0.310111 0.501978
vt 0.347228 0.469827
vt 0.332687 0.794349
vt 0.334543 0.794349
vt 0.334543 0.829890
vt 0.332687 0.829890
vt 0.355886 0.413373
vt 0.354031 0.413373
vt 0.354031 0.368601
vt 0.355886 0.368600
vt 0.345527 0.469827
vt 0.345527 0.368601
vt 0.347151 0.368468
vt 0.353490 0.365250
vt 0.250212 0.369720
vt 0.257015 0.369720
vt 0.257015 0.405261
vt 0.250212 0.405260
vt 0.242417 0.445121
vt 0.235614 0.445123
vt 0.235614 0.400350
vt 0.242417 0.400349
vt 0.196208 0.549093
vt 0.189643 0.549093
vt 0.189643 0.533726
vt 0.196208 0.533726
vt 0.189643 0.515746
vt 0.189643 0.531113
vt 0.189566 0.531114
vt 0.189566 0.515747
vt 0.352962 0.944864
vt 0.352962 0.960231
vt 0.351004 0.960226
vt 0.351004 0.944859
vt 0.337564 0.365250
vt 0.343904 0.368467
vt 0.366812 0.927375
vt 0.366812 0.847458
vt 0.367723 0.847463
vt 0.367723 0.927380
vt 0.341083 0.850813
vt 0.341083 0.930727
vt 0.340087 0.930717
vt 0.340087 0.850803
vt 0.338984 0.930716
vt 0.338984 0.850802
vt 0.337941 0.930723
vt 0.337941 0.850809
vt 0.332687 0.930725
vt 0.332687 0.850931
vt 0.333520 0.850852
vt 0.333520 0.930646
vt 0.334637 0.850807
vt 0.334637 0.930600
vt 0.335870 0.850802
vt 0.335870 0.930596
vt 0.337030 0.850839
vt 0.337030 0.930632
vt 0.337941 0.850911
vt 0.337941 0.930705
vt 0.367723 0.927369
vt 0.367723 0.847455
vt 0.368727 0.847464
vt 0.368727 0.927378
vt 0.369831 0.847465
vt 0.369831 0.927379
vt 0.370867 0.847458
vt 0.370867 0.927372
vt 0.362468 0.927382
vt 0.362468 0.847464
vt 0.363301 0.847459
vt 0.363301 0.927376
vt 0.364419 0.847455
vt 0.364419 0.927373
vt 0.331917 0.515083
vt 0.332699 0.516613
vt 0.333121 0.518599
vt 0.333121 0.520741
vt 0.332699 0.522710
vt 0.331917 0.524209
vt 0.330896 0.525008
vt 0.329792 0.524987
vt 0.328771 0.524147
vt 0.327989 0.522618
vt 0.327567 0.520631
vt 0.327567 0.518490
vt 0.327989 0.516520
vt 0.328771 0.515021
vt 0.329792 0.514222
vt 0.330896 0.514243
vt 0.365652 0.847455
vt 0.365652 0.927372
vt 0.324227 0.522809
vt 0.323458 0.524340
vt 0.322452 0.525182
vt 0.321364 0.525207
vt 0.320358 0.524410
vt 0.319588 0.522913
vt 0.319172 0.520944
vt 0.319172 0.518803
vt 0.319588 0.516815
vt 0.320358 0.515284
vt 0.321364 0.514442
vt 0.322452 0.514418
vt 0.323458 0.515214
vt 0.324227 0.516711
vt 0.324644 0.518680
vt 0.324644 0.520821
vt 0.295061 0.925730
vt 0.297500 0.924502
vt 0.298586 0.927722
vt 0.296797 0.929312
vt 0.363217 0.965206
vt 0.363217 0.968673
vt 0.361343 0.968673
vt 0.361343 0.965206
vt 0.289427 0.962864
vt 0.291216 0.964454
vt 0.290131 0.967674
vt 0.287690 0.966446
vt 0.359469 0.960607
vt 0.359469 0.956246
vt 0.361343 0.956246
vt 0.361343 0.960607
vt 0.361343 0.963227
vt 0.359469 0.963227
vt 0.322390 0.960642
vt 0.320516 0.960639
vt 0.320516 0.956937
vt 0.322390 0.956940
vt 0.288229 0.961114
vt 0.286492 0.964696
vt 0.285309 0.962170
vt 0.287264 0.959117
vt 0.361343 0.962507
vt 0.363217 0.962507
vt 0.295599 0.931062
vt 0.293863 0.927480
vt 0.359469 0.966151
vt 0.361343 0.966151
vt 0.361343 0.969663
vt 0.359469 0.969663
vt 0.294634 0.933059
vt 0.292679 0.930006
vt 0.361343 0.960008
vt 0.363217 0.960008
vt 0.286139 0.955246
vt 0.284202 0.957946
vt 0.283845 0.954384
vt 0.285968 0.952066
vt 0.361343 0.956246
vt 0.363217 0.956246
vt 0.293510 0.936930
vt 0.291572 0.934230
vt 0.291216 0.937792
vt 0.293338 0.940110
vt 0.293675 0.943573
vt 0.291411 0.942093
vt 0.352890 0.944859
vt 0.351016 0.944855
vt 0.351009 0.941948
vt 0.352883 0.941952
vt 0.324032 0.941214
vt 0.325905 0.941211
vt 0.325900 0.944016
vt 0.324026 0.944019
vt 0.352879 0.937956
vt 0.351005 0.937952
vt 0.351004 0.933919
vt 0.352878 0.933923
vt 0.325898 0.947429
vt 0.324024 0.947432
vt 0.284040 0.950083
vt 0.286304 0.948603
vt 0.286761 0.944863
vt 0.284574 0.946037
vt 0.285608 0.940969
vt 0.287660 0.940059
vt 0.325897 0.951179
vt 0.324023 0.951182
vt 0.294132 0.947313
vt 0.291945 0.946140
vt 0.352879 0.928589
vt 0.351005 0.928585
vt 0.351016 0.910330
vt 0.352890 0.910333
vt 0.295030 0.952117
vt 0.292978 0.951207
vt 0.325897 0.956209
vt 0.324023 0.956212
vt 0.323797 0.956937
vt 0.323797 0.960190
vt 0.322390 0.960190
vt 0.322390 0.956937
vt 0.325905 0.971438
vt 0.324032 0.971440
vt 0.290151 0.924502
vt 0.291216 0.926137
vt 0.298586 0.966040
vt 0.297521 0.967675
vt 0.349845 0.521013
vt 0.348778 0.518775
vt 0.352028 0.515742
vt 0.351970 0.518819
vt 0.300207 0.495338
vt 0.300207 0.492917
vt 0.300686 0.492917
vt 0.300686 0.495338
vt 0.348720 0.524944
vt 0.348778 0.528022
vt 0.345527 0.524989
vt 0.346594 0.522750
vt 0.300207 0.486839
vt 0.300207 0.483998
vt 0.300686 0.483998
vt 0.300686 0.486839
vt 0.300686 0.498183
vt 0.300207 0.498183
vt 0.300686 0.483998
vt 0.301165 0.483998
vt 0.301165 0.490399
vt 0.300686 0.490399
vt 0.300207 0.489410
vt 0.300686 0.489410
vt 0.300686 0.490962
vt 0.300207 0.490962
vt 0.352028 0.522273
vt 0.350222 0.523571
vt 0.346972 0.520193
vt 0.348778 0.521490
vt 0.348277 0.518052
vt 0.346706 0.518201
vt 0.346692 0.515984
vt 0.347429 0.515742
vt 0.300691 0.490402
vt 0.301170 0.490399
vt 0.301165 0.492847
vt 0.300686 0.492849
vt 0.351528 0.525711
vt 0.349956 0.525562
vt 0.189072 0.527016
vt 0.189551 0.527013
vt 0.189556 0.528007
vt 0.189077 0.528010
vt 0.350679 0.528020
vt 0.349943 0.527779
vt 0.300686 0.492917
vt 0.300207 0.492917
vt 0.301165 0.495265
vt 0.300686 0.495268
vt 0.274784 0.957357
vt 0.283845 0.957357
vt 0.283845 0.968630
vt 0.274784 0.968630
vt 0.352968 0.941175
vt 0.352968 0.924144
vt 0.362029 0.924144
vt 0.362029 0.941175
vt 0.315353 0.888862
vt 0.317910 0.889930
vt 0.328297 0.911801
vt 0.318865 0.917408
vt 0.274784 0.952918
vt 0.283845 0.952918
vt 0.352968 0.910331
vt 0.362029 0.910331
vt 0.284952 0.812849
vt 0.294385 0.818455
vt 0.283998 0.840328
vt 0.281440 0.841396
vt 0.293977 0.857849
vt 0.299557 0.889761
vt 0.295823 0.892757
vt 0.293816 0.859830
vt 0.314439 0.921509
vt 0.308858 0.889597
vt 0.274945 0.840662
vt 0.280526 0.808749
vt 0.362029 0.949387
vt 0.352968 0.949387
vt 0.291146 0.484005
vt 0.300207 0.483998
vt 0.300205 0.517023
vt 0.291145 0.517030
vt 0.307648 0.959498
vt 0.298587 0.959505
vt 0.298586 0.957534
vt 0.307646 0.957527
vt 0.274784 0.838681
vt 0.276791 0.805753
vt 0.362029 0.956246
vt 0.352968 0.956246
vt 0.317336 0.942483
vt 0.317336 0.958209
vt 0.315263 0.958207
vt 0.315263 0.942481
vt 0.302031 0.823068
vt 0.300373 0.848837
vt 0.274784 0.924502
vt 0.283845 0.924502
vt 0.334284 0.881418
vt 0.335942 0.907187
vt 0.342502 0.880047
vt 0.342378 0.905938
vt 0.308467 0.824315
vt 0.308591 0.850206
vt 0.324023 0.941211
vt 0.324023 0.956937
vt 0.317552 0.956937
vt 0.317552 0.941211
vt 0.302261 0.819481
vt 0.308698 0.820729
vt 0.342609 0.909524
vt 0.336173 0.910773
vt 0.326613 0.941211
vt 0.317552 0.941211
vt 0.317552 0.924505
vt 0.326613 0.924505
vt 0.332985 0.805753
vt 0.342609 0.807336
vt 0.372388 0.983615
vt 0.363327 0.983615
vt 0.363327 0.907913
vt 0.372388 0.907913
vt 0.308698 0.922918
vt 0.299073 0.924502
vt 0.327567 0.509745
vt 0.331251 0.496149
vt 0.331289 0.512716
vt 0.328365 0.514222
vt 0.310111 0.516433
vt 0.313075 0.516433
vt 0.313075 0.523713
vt 0.310111 0.523713
vt 0.332087 0.484001
vt 0.335012 0.485506
vt 0.334973 0.502074
vt 0.331289 0.488478
vt 0.328060 0.502967
vt 0.331289 0.489466
vt 0.319177 0.484006
vt 0.323371 0.484001
vt 0.323366 0.488373
vt 0.319172 0.488377
vt 0.323373 0.484001
vt 0.327567 0.484009
vt 0.327566 0.500433
vt 0.323372 0.500425
vt 0.319176 0.495199
vt 0.323370 0.495194
vt 0.323370 0.502943
vt 0.319176 0.502947
vt 0.327565 0.507069
vt 0.323371 0.507061
vt 0.335012 0.508757
vt 0.331783 0.495257
vt 0.323373 0.511089
vt 0.327567 0.511097
vt 0.325471 0.512364
vt 0.327992 0.495193
vt 0.331069 0.485355
vt 0.334791 0.512868
vt 0.331715 0.503031
vt 0.323371 0.509450
vt 0.321294 0.514418
vt 0.319177 0.509454
vt 0.334648 0.514218
vt 0.331839 0.509538
vt 0.328117 0.488685
vt 0.330907 0.484001
vt 0.364947 0.463835
vt 0.364949 0.467409
vt 0.355888 0.467406
vt 0.355886 0.463832
vt 0.355887 0.437943
vt 0.355888 0.365250
vt 0.364949 0.365253
vt 0.364948 0.437947
vt 0.000000 0.000000
vt 0.000000 0.000000
vt 0.000000 0.000000
vt 0.000000 0.000000
vt 0.000000 0.000000
vt 0.000000 0.000000
vt 0.000000 0.000000
vt 0.000000 0.000000
vt 0.000000 0.000000
vt 0.000000 0.000000
vt 0.000000 0.000000
vt 0.000000 0.000000
vt 0.000000 0.000000
vt 0.000000 0.000000
vt 0.000000 0.000000
vt 0.000000 0.000000
vn -1.0000 0.0000 0.0000
vn 1.0000 0.0000 0.0000
vn 0.0000 -1.0000 0.0000
vn 0.0000 1.0000 0.0000
vn 0.0000 0.0000 1.0000
vn 0.0000 0.0000 -1.0000
vn 0.0000 0.2806 -0.9598
vn 0.0000 0.7071 0.7071
vn 0.0000 -0.9630 -0.2696
vn 0.6699 0.7424 0.0000
vn 0.9030 0.4295 0.0000
vn 0.9987 0.0513 0.0000
vn 0.9423 -0.3348 -0.0000
vn 0.7424 -0.6699 -0.0000
vn 0.4295 -0.9030 -0.0000
vn 0.0513 -0.9987 -0.0000
vn -0.3348 -0.9423 0.0000
vn -0.6699 -0.7424 0.0000
vn -0.9030 -0.4295 0.0000
vn -0.9987 -0.0513 -0.0000
vn -0.9423 0.3348 0.0000
vn -0.7424 0.6699 0.0000
vn -0.4295 0.9030 0.0000
vn -0.0513 0.9987 0.0000
vn 0.3348 0.9423 0.0000
vn 0.0000 0.0641 -0.9979
vn 0.0000 0.1267 0.9919
vn 0.0000 -0.2863 0.9581
vn 0.0000 0.9928 0.1198
vn 0.0000 0.2863 -0.9581
vn 0.0000 -0.6704 0.7420
vn 0.0000 -0.4608 0.8875
vn 0.0000 0.4471 -0.8945
vn 0.0000 0.6402 -0.7682
vn 0.0000 -0.8358 0.5490
vn 0.0000 0.8764 -0.4816
vn 0.0000 -0.9831 0.1830
vn 0.0000 -0.9458 0.3246
vn 0.0000 0.9708 -0.2397
vn 0.0000 0.9801 -0.1987
vn 0.0000 -0.9993 -0.0374
vn 0.0000 -0.9976 0.0688
vn 0.0000 0.9954 -0.0953
vn 0.0000 0.3099 -0.9508
vn 0.0000 1.0000 0.0082
vn 0.0000 -0.4717 -0.8818
vn 0.0000 -0.2307 0.9730
vn 0.0000 -0.4162 -0.9093
vn 0.0000 0.9994 0.0349
vn 0.0000 0.6336 0.7737
vn 0.0000 0.2063 0.9785
vn 0.0000 -0.6487 -0.7610
vn 0.0000 -0.7990 0.6013
vn 0.0000 0.4521 0.8920
vn 0.0000 -0.8553 -0.5181
vn 0.0000 -0.0881 0.9961
vn 0.0000 0.3458 -0.9383
vn 0.0000 0.2114 0.9774
vn 0.0000 0.3502 -0.9367
vn 0.0000 0.4911 -0.8711
vn 0.0000 -0.9917 -0.1283
vn 0.0000 -0.9932 0.1164
vn 0.0000 0.4405 -0.8977
vn 0.0000 -0.9910 -0.1340
vn 0.0000 -0.3090 0.9511
vn 0.0000 0.1340 -0.9910
vn 0.0000 0.0713 0.9975
vn 0.0000 -0.9986 -0.0530
vn 0.0000 0.4011 -0.9160
vn 0.0000 -0.9112 -0.4119
vn 0.0000 0.9918 0.1282
vn 0.0000 -0.9903 -0.1393
vn 0.0000 -1.0000 0.0013
vn 0.0000 0.9935 0.1142
vn 0.0000 0.9539 0.3000
vn 0.0000 0.9765 0.2155
vn 0.0000 -0.7735 0.6338
vn 0.8958 -0.2866 0.3397
vn 0.0000 -0.9958 -0.0911
vn -0.8958 -0.2866 0.3397
vn -0.0000 0.9997 0.0232
vn 0.0000 0.0468 0.9989
vn 0.0000 -0.9961 -0.0878
vn 0.0000 0.9954 -0.0962
vn 0.0000 0.9989 -0.0468
vn 0.0000 -0.9989 0.0468
usemtl Material.001
s off
f 25/1/1 2/2/1 4/3/1 27/4/1
f 27/4/1 4/3/1 14/5/1 31/6/1
f 28/7/2 8/8/2 6/9/2 29/10/2
f 17/11/1 1/12/1 9/13/1 21/14/1
f 3/15/3 7/16/3 5/17/3 1/18/3
f 8/19/4 4/20/4 2/21/4 6/22/4
f 30/23/5 12/24/5 10/25/5 26/26/5
f 1/18/3 5/17/3 11/27/3 9/28/3
f 6/29/4 2/30/4 10/31/4 12/32/4
f 29/10/2 6/9/2 12/33/2 30/34/2
f 31/35/6 14/36/6 16/37/6 32/38/6
f 19/39/2 7/40/2 15/41/2 24/42/2
f 7/16/3 3/15/3 13/43/3 15/44/3
f 4/45/4 8/46/4 16/47/4 14/48/4
f 28/7/2 19/39/2 24/42/2 32/49/2
f 13/50/6 23/51/6 24/52/6 15/53/6
f 5/54/2 20/55/2 22/56/2 11/57/2
f 11/58/5 22/59/5 21/60/5 9/61/5
f 25/1/1 17/11/1 21/14/1 26/62/1
f 7/63/2 19/64/2 20/65/2 5/66/2
f 3/67/1 18/68/1 23/69/1 13/70/1
f 1/12/1 17/11/1 18/68/1 3/67/1
f 2/2/1 25/1/1 26/62/1 10/71/1
f 8/8/2 28/7/2 32/49/2 16/72/2
f 23/69/1 31/6/1 35/73/1 33/74/1
f 20/55/2 29/10/2 30/34/2 22/56/2
f 22/59/5 30/23/5 26/26/5 21/60/5
f 19/75/2 28/76/2 29/77/2 20/78/2
f 18/79/1 27/80/1 31/81/1 23/82/1
f 17/11/1 25/1/1 27/4/1 18/68/1
f 33/83/7 35/84/7 36/85/7 34/86/7
f 31/87/8 32/88/8 36/89/8 35/90/8
f 24/91/9 23/92/9 33/93/9 34/94/9
f 32/49/2 24/42/2 34/95/2 36/96/2
f 37/97/10 38/98/10 40/99/10 39/100/10
f 39/101/11 40/102/11 42/103/11 41/104/11
f 41/104/12 42/103/12 44/105/12 43/106/12
f 43/106/13 44/105/13 46/107/13 45/108/13
f 45/109/14 46/110/14 48/111/14 47/112/14
f 47/112/15 48/111/15 50/113/15 49/114/15
f 49/114/16 50/113/16 52/115/16 51/116/16
f 51/116/17 52/115/17 54/117/17 53/118/17
f 53/118/18 54/117/18 56/119/18 55/120/18
f 55/121/19 56/122/19 58/123/19 57/124/19
f 57/124/20 58/123/20 60/125/20 59/126/20
f 59/126/21 60/125/21 62/127/21 61/128/21
f 61/129/22 62/130/22 64/131/22 63/132/22
f 63/132/23 64/131/23 66/133/23 65/134/23
f 40/135/5 38/136/5 68/137/5 66/138/5 64/139/5 62/140/5 60/141/5 58/142/5 56/143/5 54/144/5 52/145/5 50/146/5 48/147/5 46/148/5 44/149/5 42/150/5
f 65/134/24 66/133/24 68/151/24 67/152/24
f 67/152/25 68/151/25 38/98/25 37/97/25
f 37/153/6 39/154/6 41/155/6 43/156/6 45/157/6 47/158/6 49/159/6 51/160/6 53/161/6 55/162/6 57/163/6 59/164/6 61/165/6 63/166/6 65/167/6 67/168/6
f 69/169/1 70/170/1 72/171/1 71/172/1
f 71/173/26 72/174/26 76/175/26 75/176/26
f 75/177/2 76/178/2 74/179/2 73/180/2
f 73/181/27 74/182/27 70/183/27 69/184/27
f 73/181/28 69/184/28 77/185/28 79/186/28
f 76/187/29 72/188/29 70/189/29 74/190/29
f 80/191/2 79/192/2 83/193/2 84/194/2
f 71/173/30 75/176/30 80/195/30 78/196/30
f 69/169/1 71/172/1 78/197/1 77/198/1
f 75/177/2 73/180/2 79/192/2 80/191/2
f 83/199/31 81/200/31 85/201/31 87/202/31
f 77/198/1 78/197/1 82/203/1 81/204/1
f 79/186/32 77/185/32 81/200/32 83/199/32
f 78/196/33 80/195/33 84/205/33 82/206/33
f 88/207/2 87/208/2 91/209/2 92/210/2
f 82/206/34 84/205/34 88/211/34 86/212/34
f 84/194/2 83/193/2 87/208/2 88/207/2
f 81/204/1 82/203/1 86/213/1 85/214/1
f 89/215/1 90/216/1 94/217/1 93/218/1
f 85/214/1 86/213/1 90/216/1 89/215/1
f 87/219/35 85/220/35 89/221/35 91/222/35
f 86/223/36 88/224/36 92/225/36 90/226/36
f 95/227/37 93/228/37 97/229/37 99/230/37
f 91/222/38 89/221/38 93/228/38 95/227/38
f 90/226/39 92/225/39 96/231/39 94/232/39
f 92/210/2 91/209/2 95/233/2 96/234/2
f 100/235/2 99/236/2 103/237/2 104/238/2
f 94/232/40 96/231/40 100/239/40 98/240/40
f 96/234/2 95/233/2 99/236/2 100/235/2
f 93/218/1 94/217/1 98/241/1 97/242/1
f 103/243/41 101/244/41 105/245/41 107/246/41
f 97/242/1 98/241/1 102/247/1 101/248/1
f 99/230/42 97/229/42 101/244/42 103/243/42
f 98/240/43 100/239/43 104/249/43 102/250/43
f 106/251/44 108/252/44 107/253/44 105/254/44
f 102/250/45 104/249/45 108/255/45 106/256/45
f 104/238/2 103/237/2 107/257/2 108/258/2
f 101/248/1 102/247/1 106/259/1 105/260/1
f 109/261/1 110/262/1 112/263/1 111/264/1
f 111/265/46 112/266/46 116/267/46 115/268/46
f 115/269/2 116/270/2 114/271/2 113/272/2
f 113/273/47 114/274/47 110/275/47 109/276/47
f 111/265/48 115/268/48 120/277/48 118/278/48
f 116/279/49 112/280/49 110/281/49 114/282/49
f 119/283/50 117/284/50 121/285/50 123/286/50
f 109/261/1 111/264/1 118/287/1 117/288/1
f 115/269/2 113/272/2 119/289/2 120/290/2
f 113/273/51 109/276/51 117/284/51 119/283/51
f 124/291/2 123/292/2 127/293/2 128/294/2
f 118/295/52 120/296/52 124/297/52 122/298/52
f 120/290/2 119/289/2 123/292/2 124/291/2
f 117/288/1 118/287/1 122/299/1 121/300/1
f 126/301/53 128/302/53 127/303/53 125/304/53
f 121/300/1 122/299/1 126/305/1 125/306/1
f 123/286/54 121/285/54 125/307/54 127/308/54
f 122/298/55 124/297/55 128/309/55 126/310/55
f 132/311/56 136/312/56 140/313/56 138/314/56
f 134/315/57 133/316/57 129/317/57 130/318/57
f 136/319/1 135/320/1 133/321/1 134/322/1
f 132/311/58 131/323/58 135/324/58 136/312/58
f 129/317/59 133/316/59 147/325/59 145/326/59
f 130/327/2 129/328/2 131/329/2 132/330/2
f 140/331/1 139/332/1 143/333/1 144/334/1
f 136/319/1 134/322/1 139/335/1 140/336/1
f 130/327/2 132/330/2 138/337/2 137/338/2
f 134/315/60 130/318/60 137/339/60 139/340/60
f 143/341/61 141/342/61 142/343/61 144/344/61
f 138/345/62 140/346/62 144/347/62 142/348/62
f 137/338/2 138/337/2 142/349/2 141/350/2
f 139/340/63 137/339/63 141/351/63 143/352/63
f 145/353/64 147/354/64 154/355/64 153/356/64
f 131/329/2 129/328/2 145/357/2 146/358/2
f 135/324/65 131/323/65 146/359/65 148/360/65
f 133/321/1 135/320/1 148/361/1 147/362/1
f 147/362/1 148/361/1 152/363/1 151/364/1
f 146/358/2 145/357/2 149/365/2 150/366/2
f 153/367/66 154/368/66 156/369/66 155/370/66
f 149/365/2 145/357/2 153/371/2 155/372/2
f 147/362/1 151/364/1 156/373/1 154/374/1
f 158/375/67 157/376/67 159/377/67 160/378/67
f 152/363/1 148/361/1 158/379/1 160/380/1
f 148/381/68 146/382/68 157/383/68 158/384/68
f 146/358/2 150/366/2 159/385/2 157/386/2
f 161/387/1 162/388/1 164/389/1 163/390/1
f 163/391/69 164/392/69 168/393/69 167/394/69
f 167/395/2 168/396/2 166/397/2 165/398/2
f 162/388/1 161/387/1 169/399/1 170/400/1
f 163/401/70 167/402/70 165/403/70 161/404/70
f 168/405/71 164/406/71 162/407/71 166/408/71
f 169/409/72 171/410/72 175/411/72 173/412/72
f 161/404/73 165/403/73 171/410/73 169/409/73
f 166/408/74 162/407/74 170/413/74 172/414/74
f 165/398/2 166/397/2 172/415/2 171/416/2
f 176/417/75 174/418/75 179/419/75
f 170/400/1 169/399/1 173/420/1 174/421/1
f 172/414/76 170/413/76 174/418/76 176/417/76
f 171/416/2 172/415/2 176/422/2 175/423/2
f 178/424/77 179/425/77 177/426/77
f 175/423/78 176/422/78 179/427/78 178/428/78
f 173/412/79 175/411/79 178/424/79 177/426/79
f 174/421/80 173/420/80 177/429/80 179/430/80
f 149/431/81 155/432/81 156/433/81 151/434/81 152/435/81 160/436/81 159/437/81 150/438/81
f 188/439/1 181/440/1 183/441/1 189/442/1
f 189/442/6 183/441/6 187/443/6 190/444/6
f 190/444/2 187/443/2 185/445/2 191/446/2
f 191/446/82 185/445/82 181/440/82 188/439/82
f 182/447/83 186/448/83 184/449/83 180/450/83
f 187/443/84 183/441/84 181/440/84 185/445/84
f 184/449/2 191/446/2 195/451/2 193/452/2
f 186/448/2 190/444/2 191/446/2 184/449/2
f 182/447/6 189/442/6 190/444/6 186/448/6
f 180/450/1 188/439/1 189/442/1 182/447/1
f 193/452/82 195/451/82 194/453/82 192/454/82
f 191/446/85 188/439/85 194/453/85 195/451/85
f 188/439/1 180/450/1 192/454/1 194/453/1
f 180/450/86 184/449/86 193/452/86 192/454/86
